<?xml version="1.0" standalone="no"?><!DOCTYPE svg PUBLIC "-//W3C//DTD SVG 1.1//EN" "http://www.w3.org/Graphics/SVG/1.1/DTD/svg11.dtd"><svg t="1512802570324" class="icon" style="" viewBox="0 0 1024 1024" version="1.1" xmlns="http://www.w3.org/2000/svg" p-id="989" xmlns:xlink="http://www.w3.org/1999/xlink" width="200" height="200"><defs><style type="text/css"></style></defs><path d="M626.588576 636.301779 559.9111 601.922852 512.039909 659.684279 463.598737 602.402782 397.266115 637.44481 374.431083 565.987481 299.737043 572.979718 305.982268 498.223256 234.299812 476.09635 268.682832 409.422968 210.922429 361.547684 268.203925 313.105488 233.161898 246.77389 304.619227 223.938858 297.625966 149.245841 372.383451 155.491066 394.50524 83.812703 461.183739 118.190606 509.053907 60.430203 557.500196 117.7117 623.832818 82.668649 646.66785 154.127002 721.360867 147.134764 715.111548 221.891226 786.794004 244.018132 752.417124 310.691514 810.171387 358.566799 752.895007 407.008994 787.938058 473.340592 716.480729 496.175625 723.472966 570.868641 648.710365 564.623416Z" p-id="990" fill="#d81e06"></path><path d="M230.077659 916.470176 329.825255 852.73777 335.366447 852.73777 385.244338 963.572866 473.908526 675.409394 451.742735 644.926186 371.38573 686.492801 346.448831 600.594604 329.825255 606.135796Z" p-id="991" fill="#d81e06"></path><path d="M787.007875 916.470176 687.261302 852.73777 681.72011 852.73777 631.842219 963.572866 543.177008 675.409394 565.342799 644.926186 645.700827 686.492801 670.637726 600.594604 687.261302 606.135796Z" p-id="992" fill="#d81e06"></path></svg>